 <svg version="1.0" xmlns="http://www.w3.org/2000/svg" width="700.000000pt" height="700.000000pt" viewBox="0 0 700.000000 700.000000" preserveAspectRatio="xMidYMid meet">
<metadata>
Created by potrace 1.12, written by Peter Selinger 2001-2015
</metadata>
<g transform="translate(0.000000,700.000000) scale(0.100000,-0.100000)" fill="#000000" stroke="none">
<path d="M3795 6703 c-78 -12 -188 -44 -223 -67 -74 -46 -102 -105 -95 -202 4
-52 1 -78 -10 -101 -17 -32 -13 -64 13 -113 9 -17 18 -21 41 -18 28 4 29 3 24
-22 -5 -22 -1 -29 20 -38 18 -8 25 -19 25 -39 0 -16 5 -45 11 -66 8 -31 14
-38 29 -34 11 3 24 -1 29 -7 17 -20 25 -195 11 -245 -22 -81 -134 -174 -255
-211 -22 -7 -111 -16 -197 -19 -156 -6 -157 -6 -187 -35 -40 -39 -71 -106
-125 -277 -25 -80 -82 -225 -127 -324 -101 -226 -119 -276 -119 -336 0 -109
30 -129 165 -105 50 9 140 20 200 26 61 5 164 23 229 40 66 17 121 29 122 27
2 -2 6 -53 10 -115 l7 -111 -56 -84 c-67 -99 -106 -196 -114 -283 -5 -54 -11
-69 -46 -111 -22 -26 -46 -62 -53 -80 -22 -52 -98 -98 -304 -182 -237 -97
-407 -211 -594 -397 -123 -123 -175 -190 -200 -252 -23 -62 -20 -101 15 -171
56 -112 155 -153 316 -132 49 6 110 11 135 11 41 0 47 3 50 23 3 20 10 23 83
29 92 7 168 25 310 73 153 51 292 76 445 82 l135 5 47 -32 c74 -50 135 -155
187 -325 12 -38 27 -76 35 -85 10 -12 12 -83 9 -340 -4 -394 -6 -437 -22 -475
-38 -91 -53 -199 -56 -410 -3 -288 -18 -367 -91 -491 -30 -51 -57 -105 -60
-121 -3 -16 1 -56 10 -88 14 -56 14 -62 -4 -103 -25 -55 -25 -59 0 -72 13 -7
33 -7 64 0 28 6 54 6 69 1 17 -7 33 -5 52 5 15 8 41 14 59 14 42 0 81 21 81
44 0 13 -14 23 -45 35 -36 13 -47 23 -57 51 -15 44 -16 172 -2 225 6 22 59
139 118 260 153 313 211 472 227 628 5 53 12 74 30 92 l24 24 0 263 c0 244 2
269 24 353 13 50 36 144 51 210 28 124 48 194 110 399 63 212 76 336 55 546
-5 52 -14 180 -20 285 -11 196 -27 300 -61 395 -37 102 -42 138 -34 266 4 68
12 130 19 139 10 14 18 14 86 -4 109 -28 318 -59 447 -67 l112 -7 7 27 c15 62
-15 198 -79 361 -48 121 -223 527 -252 586 -36 69 -74 109 -130 135 -43 21
-66 24 -162 24 -125 0 -197 19 -255 68 -44 37 -56 75 -70 210 l-12 118 43 43
c26 26 41 49 39 61 -2 10 14 41 36 69 35 47 37 53 26 83 -6 18 -14 80 -17 136
-6 98 -8 107 -43 160 -79 123 -195 183 -315 165z m740 -1702 c25 -51 64 -124
87 -162 22 -38 38 -73 34 -76 -7 -7 -268 -5 -275 2 -2 2 11 48 28 101 17 54
39 130 48 170 10 40 21 70 25 66 4 -4 28 -50 53 -101z m-1266 -4 c31 -66 71
-209 71 -254 0 -10 -270 3 -280 13 -6 6 8 38 41 89 59 92 109 192 109 218 0
37 22 13 59 -66z m473 -1734 c52 -57 57 -92 15 -115 -12 -6 -66 -17 -122 -24
-55 -7 -143 -18 -195 -25 -94 -12 -150 -8 -150 11 0 6 4 10 9 10 8 0 195 85
316 144 66 33 95 32 127 -1z"></path>
</g>
</svg>